<mxfile host="app.diagrams.net" modified="2023-12-09T20:28:23.519Z" agent="Mozilla/5.0 (X11; Linux x86_64) AppleWebKit/537.36 (KHTML, like Gecko) Chrome/120.0.0.0 Safari/537.36" etag="pDZhMLiD6-7qtX7Y7gmQ" version="22.1.7" type="device">
  <diagram name="Page-1" id="D1gy60uCmTZI7_eMrfbx">
    <mxGraphModel dx="965" dy="616" grid="1" gridSize="10" guides="1" tooltips="1" connect="1" arrows="1" fold="1" page="1" pageScale="1" pageWidth="850" pageHeight="1100" math="0" shadow="0">
      <root>
        <mxCell id="0" />
        <mxCell id="1" parent="0" />
        <mxCell id="F3ZHKQ5qh3a04gbjnDMH-6" style="edgeStyle=orthogonalEdgeStyle;rounded=0;orthogonalLoop=1;jettySize=auto;html=1;exitX=0.25;exitY=1;exitDx=0;exitDy=0;" parent="1" source="F3ZHKQ5qh3a04gbjnDMH-2" target="F3ZHKQ5qh3a04gbjnDMH-4" edge="1">
          <mxGeometry relative="1" as="geometry" />
        </mxCell>
        <mxCell id="F3ZHKQ5qh3a04gbjnDMH-10" value="has previous versions" style="edgeLabel;html=1;align=center;verticalAlign=middle;resizable=0;points=[];" parent="F3ZHKQ5qh3a04gbjnDMH-6" vertex="1" connectable="0">
          <mxGeometry x="0.1385" y="-4" relative="1" as="geometry">
            <mxPoint x="15" y="-6" as="offset" />
          </mxGeometry>
        </mxCell>
        <mxCell id="F3ZHKQ5qh3a04gbjnDMH-7" style="edgeStyle=orthogonalEdgeStyle;rounded=0;orthogonalLoop=1;jettySize=auto;html=1;exitX=0.75;exitY=1;exitDx=0;exitDy=0;" parent="1" source="F3ZHKQ5qh3a04gbjnDMH-2" target="F3ZHKQ5qh3a04gbjnDMH-5" edge="1">
          <mxGeometry relative="1" as="geometry" />
        </mxCell>
        <mxCell id="F3ZHKQ5qh3a04gbjnDMH-9" value="does not have previous versions" style="edgeLabel;html=1;align=center;verticalAlign=middle;resizable=0;points=[];" parent="F3ZHKQ5qh3a04gbjnDMH-7" vertex="1" connectable="0">
          <mxGeometry x="-0.1474" relative="1" as="geometry">
            <mxPoint x="24" y="-10" as="offset" />
          </mxGeometry>
        </mxCell>
        <mxCell id="F3ZHKQ5qh3a04gbjnDMH-28" style="edgeStyle=orthogonalEdgeStyle;rounded=0;orthogonalLoop=1;jettySize=auto;html=1;exitX=1;exitY=0.5;exitDx=0;exitDy=0;entryX=0.5;entryY=0;entryDx=0;entryDy=0;" parent="1" source="F3ZHKQ5qh3a04gbjnDMH-2" target="F3ZHKQ5qh3a04gbjnDMH-26" edge="1">
          <mxGeometry relative="1" as="geometry" />
        </mxCell>
        <mxCell id="F3ZHKQ5qh3a04gbjnDMH-2" value="Client sends &lt;i&gt;DE&lt;/i&gt;&amp;nbsp;request" style="rounded=1;whiteSpace=wrap;html=1;" parent="1" vertex="1">
          <mxGeometry x="335" y="20" width="180" height="60" as="geometry" />
        </mxCell>
        <mxCell id="F3ZHKQ5qh3a04gbjnDMH-15" style="edgeStyle=orthogonalEdgeStyle;rounded=0;orthogonalLoop=1;jettySize=auto;html=1;exitX=1;exitY=0.5;exitDx=0;exitDy=0;" parent="1" source="F3ZHKQ5qh3a04gbjnDMH-4" target="F3ZHKQ5qh3a04gbjnDMH-14" edge="1">
          <mxGeometry relative="1" as="geometry" />
        </mxCell>
        <mxCell id="F3ZHKQ5qh3a04gbjnDMH-16" value="requested collection does not exist" style="edgeLabel;html=1;align=center;verticalAlign=middle;resizable=0;points=[];" parent="F3ZHKQ5qh3a04gbjnDMH-15" vertex="1" connectable="0">
          <mxGeometry x="-0.4857" y="-3" relative="1" as="geometry">
            <mxPoint x="38" y="-13" as="offset" />
          </mxGeometry>
        </mxCell>
        <mxCell id="F3ZHKQ5qh3a04gbjnDMH-17" style="edgeStyle=orthogonalEdgeStyle;rounded=0;orthogonalLoop=1;jettySize=auto;html=1;exitX=0.5;exitY=1;exitDx=0;exitDy=0;entryX=0.5;entryY=0;entryDx=0;entryDy=0;" parent="1" source="F3ZHKQ5qh3a04gbjnDMH-4" target="F3ZHKQ5qh3a04gbjnDMH-11" edge="1">
          <mxGeometry relative="1" as="geometry" />
        </mxCell>
        <mxCell id="F3ZHKQ5qh3a04gbjnDMH-4" value="Server sends collections that have changes" style="rounded=1;whiteSpace=wrap;html=1;" parent="1" vertex="1">
          <mxGeometry x="40" y="140" width="150" height="60" as="geometry" />
        </mxCell>
        <mxCell id="F3ZHKQ5qh3a04gbjnDMH-19" style="edgeStyle=orthogonalEdgeStyle;rounded=0;orthogonalLoop=1;jettySize=auto;html=1;exitX=0.5;exitY=1;exitDx=0;exitDy=0;entryX=0.5;entryY=0;entryDx=0;entryDy=0;" parent="1" source="F3ZHKQ5qh3a04gbjnDMH-5" target="F3ZHKQ5qh3a04gbjnDMH-11" edge="1">
          <mxGeometry relative="1" as="geometry" />
        </mxCell>
        <mxCell id="F3ZHKQ5qh3a04gbjnDMH-5" value="Server sends all collections" style="rounded=1;whiteSpace=wrap;html=1;" parent="1" vertex="1">
          <mxGeometry x="660" y="140" width="140" height="60" as="geometry" />
        </mxCell>
        <mxCell id="F3ZHKQ5qh3a04gbjnDMH-20" style="edgeStyle=orthogonalEdgeStyle;rounded=0;orthogonalLoop=1;jettySize=auto;html=1;exitX=0.75;exitY=1;exitDx=0;exitDy=0;" parent="1" source="F3ZHKQ5qh3a04gbjnDMH-11" target="F3ZHKQ5qh3a04gbjnDMH-12" edge="1">
          <mxGeometry relative="1" as="geometry" />
        </mxCell>
        <mxCell id="F3ZHKQ5qh3a04gbjnDMH-22" value="No" style="edgeLabel;html=1;align=center;verticalAlign=middle;resizable=0;points=[];" parent="F3ZHKQ5qh3a04gbjnDMH-20" vertex="1" connectable="0">
          <mxGeometry x="-0.237" y="3" relative="1" as="geometry">
            <mxPoint x="12" y="-2" as="offset" />
          </mxGeometry>
        </mxCell>
        <mxCell id="F3ZHKQ5qh3a04gbjnDMH-21" style="edgeStyle=orthogonalEdgeStyle;rounded=0;orthogonalLoop=1;jettySize=auto;html=1;exitX=0.25;exitY=1;exitDx=0;exitDy=0;" parent="1" source="F3ZHKQ5qh3a04gbjnDMH-11" target="F3ZHKQ5qh3a04gbjnDMH-13" edge="1">
          <mxGeometry relative="1" as="geometry" />
        </mxCell>
        <mxCell id="F3ZHKQ5qh3a04gbjnDMH-23" value="Yes" style="edgeLabel;html=1;align=center;verticalAlign=middle;resizable=0;points=[];" parent="F3ZHKQ5qh3a04gbjnDMH-21" vertex="1" connectable="0">
          <mxGeometry x="0.2286" y="1" relative="1" as="geometry">
            <mxPoint x="27" y="-6" as="offset" />
          </mxGeometry>
        </mxCell>
        <mxCell id="F3ZHKQ5qh3a04gbjnDMH-11" value="Collection is bigger than 1 Mb" style="rounded=1;whiteSpace=wrap;html=1;" parent="1" vertex="1">
          <mxGeometry x="360" y="490" width="120" height="60" as="geometry" />
        </mxCell>
        <mxCell id="QPECrZo4n5FLmgTB3uuv-4" style="edgeStyle=orthogonalEdgeStyle;rounded=0;orthogonalLoop=1;jettySize=auto;html=1;exitX=0.5;exitY=1;exitDx=0;exitDy=0;" parent="1" source="F3ZHKQ5qh3a04gbjnDMH-12" target="QPECrZo4n5FLmgTB3uuv-3" edge="1">
          <mxGeometry relative="1" as="geometry" />
        </mxCell>
        <mxCell id="F3ZHKQ5qh3a04gbjnDMH-12" value="Server sends &lt;i&gt;full sync&lt;/i&gt;" style="rounded=1;whiteSpace=wrap;html=1;" parent="1" vertex="1">
          <mxGeometry x="640" y="660" width="150" height="60" as="geometry" />
        </mxCell>
        <mxCell id="QPECrZo4n5FLmgTB3uuv-1" style="edgeStyle=orthogonalEdgeStyle;rounded=0;orthogonalLoop=1;jettySize=auto;html=1;exitX=1;exitY=0.5;exitDx=0;exitDy=0;" parent="1" source="F3ZHKQ5qh3a04gbjnDMH-13" target="F3ZHKQ5qh3a04gbjnDMH-12" edge="1">
          <mxGeometry relative="1" as="geometry" />
        </mxCell>
        <mxCell id="F3ZHKQ5qh3a04gbjnDMH-13" value="Server sends &lt;i&gt;partial_sync(s)&lt;/i&gt; ending with &lt;i&gt;full sync&lt;/i&gt;" style="rounded=1;whiteSpace=wrap;html=1;" parent="1" vertex="1">
          <mxGeometry x="50" y="660" width="170" height="60" as="geometry" />
        </mxCell>
        <mxCell id="F3ZHKQ5qh3a04gbjnDMH-14" value="Server sends &lt;i&gt;remove_collection&lt;/i&gt;" style="rounded=1;whiteSpace=wrap;html=1;" parent="1" vertex="1">
          <mxGeometry x="360" y="210" width="120" height="60" as="geometry" />
        </mxCell>
        <mxCell id="F3ZHKQ5qh3a04gbjnDMH-25" value="Collection response of size 2.6 Mb will result in 2 &lt;i&gt;partial sync&lt;/i&gt; and 1 &lt;i&gt;full_sync&lt;/i&gt;" style="shape=note;strokeWidth=2;fontSize=14;size=20;whiteSpace=wrap;html=1;fillColor=#fff2cc;strokeColor=#d6b656;fontColor=#666600;" parent="1" vertex="1">
          <mxGeometry x="50" y="730" width="160" height="110" as="geometry" />
        </mxCell>
        <mxCell id="F3ZHKQ5qh3a04gbjnDMH-26" value="Server starts sending &lt;i&gt;changes&lt;/i&gt;" style="rounded=1;whiteSpace=wrap;html=1;direction=east;" parent="1" vertex="1">
          <mxGeometry x="900" y="90" width="200" height="80" as="geometry" />
        </mxCell>
        <mxCell id="F3ZHKQ5qh3a04gbjnDMH-34" value="Server receives sync request at 11:49:49:11, changes starting at 11:49:49:12 are send" style="shape=note;strokeWidth=2;fontSize=14;size=20;whiteSpace=wrap;html=1;fillColor=#fff2cc;strokeColor=#d6b656;fontColor=#666600;" parent="1" vertex="1">
          <mxGeometry x="900" y="180" width="160" height="120" as="geometry" />
        </mxCell>
        <mxCell id="QPECrZo4n5FLmgTB3uuv-3" value="Clients saves the response&amp;nbsp;&lt;i&gt;version&lt;/i&gt; which will be used on the next &lt;i&gt;sync&lt;/i&gt; request" style="rounded=1;whiteSpace=wrap;html=1;" parent="1" vertex="1">
          <mxGeometry x="613.75" y="850" width="202.5" height="80" as="geometry" />
        </mxCell>
      </root>
    </mxGraphModel>
  </diagram>
</mxfile>
